<svg xmlns="http://www.w3.org/2000/svg" viewBox="0 0 1584 396" width="1584" height="396">
  <defs>
    <linearGradient id="bg" x1="0" y1="0" x2="1" y2="1">
      <stop offset="0%" stop-color="#F7F5F0"/>
      <stop offset="100%" stop-color="#E8EEF2"/>
    </linearGradient>
  </defs>
  <rect width="1584" height="396" fill="url(#bg)"/>

  <!-- soft wave lines -->
  <g fill="none" stroke="#1E3A8A" stroke-width="1">
    <path d="M0,200 C300,140 600,260 900,200 S1300,140 1584,200" stroke-opacity="0.18"/>
    <path d="M0,225 C300,165 600,285 900,225 S1300,165 1584,225" stroke-opacity="0.14"/>
    <path d="M0,250 C300,190 600,310 900,250 S1300,190 1584,250" stroke-opacity="0.10"/>
    <path d="M0,275 C300,215 600,335 900,275 S1300,215 1584,275" stroke-opacity="0.07"/>
  </g>

  <g font-family="Georgia, 'Times New Roman', serif" fill="#1A1A1A">
    <text x="780" y="180" font-size="40" font-weight="600" fill="#FF5722">Technology Leader</text>
    <text x="780" y="218" font-size="17" font-family="Helvetica, Arial, sans-serif" letter-spacing="3" fill="#1E3A8A">AI-AUGMENTED OPS  ·  REGULATED PLATFORMS</text>
    <text x="780" y="272" font-size="18" font-family="Helvetica, Arial, sans-serif" fill="#333">Building what doesn't exist yet,</text>
    <text x="780" y="296" font-size="18" font-family="Helvetica, Arial, sans-serif" fill="#333">and solving problems others miss.</text>
  </g>
</svg>
