<svg xmlns="http://www.w3.org/2000/svg" viewBox="0 0 1584 396" width="1584" height="396">
  <defs>
    <linearGradient id="bg" x1="0" y1="0" x2="1" y2="1">
      <stop offset="0%" stop-color="#0F1B2D"/>
      <stop offset="100%" stop-color="#1E3A5F"/>
    </linearGradient>
  </defs>
  <rect width="1584" height="396" fill="url(#bg)"/>

  <g fill="none" stroke="#7DD3FC" stroke-width="1.4">
    <path d="M0,90 C300,30 600,150 900,90 S1300,30 1584,90" stroke-opacity="0.45"/>
    <path d="M0,140 C300,80 600,200 900,140 S1300,80 1584,140" stroke-opacity="0.35"/>
    <path d="M0,190 C300,130 600,250 900,190 S1300,130 1584,190" stroke-opacity="0.28"/>
    <path d="M0,240 C300,180 600,300 900,240 S1300,180 1584,240" stroke-opacity="0.22"/>
    <path d="M0,290 C300,230 600,350 900,290 S1300,230 1584,290" stroke-opacity="0.16"/>
    <path d="M0,340 C300,280 600,400 900,340 S1300,280 1584,340" stroke-opacity="0.10"/>
  </g>

  <g font-family="'Helvetica Neue', Helvetica, Arial, sans-serif" fill="#FFFFFF">
    <text x="540" y="170" font-size="72" font-weight="700" letter-spacing="-1.5">Technology Leader</text>
    <text x="544" y="220" font-size="26" font-weight="500" fill="#7DD3FC" letter-spacing="3">AI-AUGMENTED OPS  ·  REGULATED PLATFORMS</text>
    <text x="544" y="290" font-size="24" fill="#E2E8F0" font-weight="300">Building what doesn't exist yet, and solving problems others miss.</text>
  </g>
</svg>
