<svg xmlns="http://www.w3.org/2000/svg" viewBox="0 0 1584 396" width="1584" height="396">
  <defs>
    <linearGradient id="bg" x1="0" y1="0" x2="1" y2="1">
      <stop offset="0%" stop-color="#EEF2F6"/>
      <stop offset="100%" stop-color="#DDE6EF"/>
    </linearGradient>
  </defs>
  <rect width="1584" height="396" fill="url(#bg)"/>

  <!-- soft single-hue waves -->
  <g fill="none" stroke="#1E3A5F" stroke-width="1">
    <path d="M0,180 C300,120 600,240 900,180 S1300,120 1584,180" stroke-opacity="0.20"/>
    <path d="M0,210 C300,150 600,270 900,210 S1300,150 1584,210" stroke-opacity="0.15"/>
    <path d="M0,240 C300,180 600,300 900,240 S1300,180 1584,240" stroke-opacity="0.11"/>
    <path d="M0,270 C300,210 600,330 900,270 S1300,210 1584,270" stroke-opacity="0.08"/>
  </g>

  <g font-family="'Helvetica Neue', Helvetica, Arial, sans-serif" fill="#0F1B2D">
    <text x="780" y="180" font-size="42" font-weight="600" letter-spacing="-0.3">Technology Leader</text>
    <text x="780" y="218" font-size="18" font-weight="500" fill="#1E3A5F" letter-spacing="2.5">AI-AUGMENTED OPS  ·  REGULATED PLATFORMS</text>
    <text x="780" y="270" font-size="18" fill="#475569" font-weight="300">Building what doesn't exist yet,</text>
    <text x="780" y="294" font-size="18" fill="#475569" font-weight="300">and solving problems others miss.</text>
  </g>
</svg>
