<svg xmlns="http://www.w3.org/2000/svg" viewBox="0 0 1584 396" width="1584" height="396">
  <rect width="1584" height="396" fill="#FFFFFF"/>
  <rect x="500" width="20" height="396" fill="#0F1B2D"/>
  <g fill="none" stroke="#0F1B2D" stroke-width="1.4">
    <path d="M540,90 C720,30 920,150 1120,90 S1420,30 1584,90" stroke-opacity="0.22"/>
    <path d="M540,150 C720,90 920,210 1120,150 S1420,90 1584,150" stroke-opacity="0.16"/>
    <path d="M540,210 C720,150 920,270 1120,210 S1420,150 1584,210" stroke-opacity="0.12"/>
    <path d="M540,270 C720,210 920,330 1120,270 S1420,210 1584,270" stroke-opacity="0.08"/>
    <path d="M540,330 C720,270 920,390 1120,330 S1420,270 1584,330" stroke-opacity="0.05"/>
  </g>
  <g font-family="'Helvetica Neue', Helvetica, Arial, sans-serif">
    <text x="560" y="130" font-size="64" font-weight="800" fill="#0F1B2D" letter-spacing="-1.4">Technology Leader</text>
    <text x="564" y="172" font-size="20" font-weight="700" fill="#0F1B2D" letter-spacing="2.5">PRODUCT &amp; PROGRAM MANAGEMENT OFFICE</text>
    <text x="564" y="204" font-size="20" font-weight="700" fill="#0F1B2D" letter-spacing="2.5">AI-AUGMENTED OPS  ·  REGULATED PLATFORMS</text>
    <text x="564" y="270" font-size="22" fill="#1A1F26" font-weight="500">Building what doesn't exist yet,</text>
    <text x="564" y="300" font-size="22" fill="#1A1F26" font-weight="500">and solving problems others miss.</text>
  </g>
</svg>
